# xmcd
#
# Track frame offsets: 
#        150
#        16890
#        34200
#        71095
#
# Disc length: 1169 seconds
#
# Revision: 0
# Processed by: cddbd v1.5.2PL0 Copyright (c) Steve Scherf et al.
# Submitted via: ExactAudioCopy v0.99pb3
#
DISCID=2e048f04
DTITLE=AYUSE KOZUE - Pretty Good
DYEAR=2007
DGENRE=JPop
TTITLE0=Pretty Good
TTITLE1=WORDS
TTITLE2=boyfriend (ATFC REMIX)
TTITLE3=Pretty Good (Instrumental)
EXTD=
EXTT0=
EXTT1=
EXTT2=
EXTT3=
PLAYORDER=
